<?xml version="1.0" encoding="UTF-8"?>
<svg viewBox="0 0 1493 808" xmlns="http://www.w3.org/2000/svg" xmlns:xlink="http://www.w3.org/1999/xlink">
<defs>
<rect id="b" width="1493" height="808"/>
</defs>
<g fill="none" fill-rule="evenodd">
<mask id="a" fill="#fff">
<use xlink:href="#b"/>
</mask>
<g mask="url(#a)" stroke="rgba(51,52,48,0.05)">
<g transform="rotate(-2 -6253.2 3180.6)">
<path d="m0 905s10.068 18.417 24.693 33.06c5.9318 5.9385 12.637 11.066 18.485 17.087 5.4566 5.6176 10.238 11.855 13.993 18.734 5.2475 9.6129 8.5626 20.159 13.702 29.834 8.3104 15.64 21.127 28.285 21.127 28.285m-86-179s15.789 16.95 31.928 33.562c9.4876 9.7665 19.217 19.296 28.627 29.137 12.211 12.769 24.132 25.809 37.253 37.621 5.1403 4.628 10.54 8.9581 15.786 13.465 13.675 11.753 27.022 23.928 38.538 37.807 7.0515 8.4997 13.341 17.591 19.81 26.547 8.3528 11.563 17.059 22.861 17.059 22.861m-183-251s16.696 16.962 32.35 34.87c21.014 24.04 40.432 49.438 62.31 72.679 19.487 20.702 40.413 40.134 63.249 57.057 20.621 15.28 42.723 28.354 64.003 42.721 13.959 9.4246 27.442 19.535 40.985 29.551 11.56 8.5492 23.104 17.123 23.104 17.123m-271-310.33s13.369 33.924 32.005 65.051c13.491 22.531 29.601 43.354 47.09 62.955 17.185 19.263 35.681 37.326 55.653 53.678 17.039 13.95 35.093 26.592 53.56 38.594 20.29 13.188 41.076 25.595 62.297 37.225 10.147 5.5603 20.548 11.033 28.02 19.804 13.309 15.622 16.613 40.658 35.99 41.975 5.5733 0.3801 11.061-1.2293 16.647-1.542 15.358-0.86189 27.217 7.7011 20.965 0.39281-3.822-4.4684-8.6894-7.996-11.938-12.888-1.5097-2.2755-2.559-4.8078-3.6999-7.2918-7.7228-16.798-20.907-30.206-35.755-41.321-15.607-11.684-32.862-20.909-50.404-29.44-14.817-7.2066-29.883-13.908-44.392-21.71-23.332-12.544-45.051-27.861-65.018-45.273-20.415-17.802-38.886-37.699-55.469-59.118-13.465-17.394-25.655-35.749-36.064-55.125-9.2999-17.308-17.198-35.466-20.341-54.831-2.2983-14.159-2.0095-28.685 2.1723-42.389 4.3676-14.308 12.778-27.061 24.327-36.568 17.655-14.536 40.648-19.851 63.572-21.716 23.951-1.9488 48.029-0.14873 71.629 4.4086 26.978 5.2095 53.203 13.986 80.435 17.516 16.452 2.1331 33.35 2.3632 48.698-3.7539 9.4525-3.7692 17.896-9.7821 23.971-17.932 7.2204-9.6855 10.512-21.603 11.354-33.689 0.67409-9.6702-0.22385-19.446-3.8194-28.43-4.6283-11.564-13.327-20.816-22.178-29.65-12.162-12.138-24.857-23.724-37.514-35.345-14.473-13.289-28.938-26.664-41.142-42.046-8.7339-11.006-16.232-22.939-22.436-35.547-10.703-21.753-17.397-45.176-22.7-68.852-5.0353-22.473-8.8242-45.211-11.084-68.129-1.7475-17.731-2.5908-35.625 0.38283-53.17 3.0029-17.713 9.8035-34.487 15.059-51.689 8.4808-27.758 12.974-56.829 25.877-82.762 3.9937-8.0265 8.7555-15.663 12.317-23.888 3.6744-8.4854 6.3453-18.268 14.797-21.312 6.4331-2.3174 13.796 0.14492 16.178 6.4502 3.1072 8.2274-5.3304 14.891-11.117 22.159-7.8131 9.8126-11.79 21.941-15.966 33.817-5.2999 15.068-10.999 29.998-15.716 45.257-6.5756 21.271-11.233 43.07-15.387 64.948-2.7917 14.7-5.3571 29.461-6.4026 44.382-1.7361 24.803 0.7415 49.654 4.8229 74.196 3.3005 19.854 7.6681 39.595 15.709 58.024 6.7333 15.433 15.907 29.637 26.106 43.048 8.8115 11.585 18.391 22.572 28.87 32.673 13.03 12.56 27.365 23.66 41.15 35.393 10.473 8.9138 20.633 18.194 30.162 28.107 5.8887 6.1273 11.584 12.544 15.14 20.24 3.8016 8.2299 4.8967 17.359 5.3736 26.436 0.47568 9.0524 0.3434 18.153-1.3673 27.049-2.0935 10.899-6.4903 21.167-10.863 31.384-4.1043 9.5914-8.2964 19.398-16.132 26.189-6.9571 6.0282-15.954 8.9621-25.159 9.6817-16.599 1.2966-32.614-4.7023-48.724-9.2393-17.352-4.8853-35.102-8.1575-52.892-11.105-14.335-2.3759-28.707-4.5421-43.14-6.2163-10.715-1.2433-21.463-2.2183-32.237-2.7446-15.416-0.75384-30.974-0.59493-45.815 3.5366-9.4398 2.6276-18.417 6.8138-25.961 13.05-5.6496 4.6718-10.347 10.371-14.124 16.657-5.8722 9.7706-9.4245 20.799-9.712 32.184-0.35231 13.964 4.2328 27.417 9.0366 40.588 3.5841 9.8266 7.3298 19.605 11.978 28.971 7.953 16.023 18.431 30.607 29.697 44.516 13.645 16.842 28.458 32.71 44.505 47.282 15.343 13.931 31.769 26.639 49.395 37.532 18.325 11.324 37.823 20.614 58.057 28.009 18.273 6.6777 37.126 11.797 54.786 19.933 8.4236 3.8798 16.553 8.4397 23.573 14.486 8.3193 7.1646 14.807 16.176 19.522 26.098 6.4496 13.573 9.5161 28.731 18.349 40.82 4.0178 5.5006 9.076 10.148 14.793 13.855 7.5803 4.912 17.288 8.7956 20.088 1.3094 2.1978-5.8781-2.6302-11.386-5.4321-17.257-4.1119-8.6164-4.0255-18.453-5.1498-27.989-1.2248-10.372-3.9097-20.496-7.0105-30.474-2.9317-9.435-6.236-18.768-8.2544-28.436-0.83943-4.0209-1.4805-8.2083-4.0649-11.357-3.7113-4.5218-10.02-5.1802-15.912-6.0943-4.3409-0.67375-8.6589-1.5166-13.035-1.8789-7.6808-0.63434-15.404 0.22119-23.105-0.16018-8.3574-0.41569-16.556-2.2768-24.829-3.5785-8.9857-1.4136-18.071-2.1687-27.002-3.8912-13.01-2.5081-25.524-7.0299-37.561-12.584-14.896-6.8735-29.009-15.307-42.433-24.743-14.779-10.388-28.697-21.966-41.355-34.852-12.09-12.308-22.956-25.739-33.473-39.419-10.737-13.968-21.222-28.341-26.974-44.947-4.5367-13.103-5.9218-27.008-6.6493-40.878-0.52655-10.031-0.72751-20.387 4.1895-29.05 3.3997-5.9875 8.8331-10.438 14.601-14.244 8.2481-5.4408 17.274-9.6219 26.838-12.1 21.121-5.4726 43.182-2.1941 64.869 0.98266 17.029 2.4954 34.082 4.9705 50.756 9.2151 18.953 4.823 37.245 11.895 54.838 20.448 7.5994 3.6942 15.06 7.6655 22.709 11.255 9.1269 4.284 18.509 8.0252 27.442 12.698 3.3526 1.7543 6.69 3.6662 10.425 4.1633 4.3892 0.58476 8.7632-0.85935 12.298-3.5505 5.6-4.2637 8.3231-11.072 10.188-17.92 3.2687-11.999 4.014-24.49 5.3189-36.872 1.2757-12.103 3.0957-24.141 5.2108-36.127 2.882-16.331 6.3288-32.607 7.0907-49.161 0.43498-9.435-0.002544-18.976-3.2076-27.836-4.3091-11.906-13.171-21.359-22.47-30.04-12.003-11.205-24.954-21.325-37.848-31.496-8.9692-7.0744-17.917-14.182-26.525-21.691-10.147-8.8503-19.811-18.248-28.593-28.451-9.7247-11.3-18.3-23.52-26.773-35.793-6.8872-9.9766-13.79-20.11-17.093-31.737-1.3444-4.7353-2.0604-9.6168-2.8541-14.478-3.0258-18.537-7.1962-36.905-8.7047-55.62-0.90811-11.261-0.8407-22.573-0.06105-33.845 1.2731-18.409 4.4426-36.615 7.897-54.748 4.3116-22.638 9.0849-45.197 15.418-67.352 3.9733-13.898 8.5584-27.624 14.264-40.904 5.8938-13.718 12.965-26.914 21.605-39.088 5.1205-7.2142 10.769-14.036 10.769-14.036"/>
<path d="m51.393 644s9.3629-8.7079 20.274-15.161c21.144-12.506 46.159-15.45 70.835-16.098 17.096-0.44787 34.221 0.21503 51.093 2.9773 15.758 2.579 31.163 6.8974 46.708 10.563 13.438 3.1694 27.041 5.877 40.831 5.8821 8.1112 0.003817 16.183-0.95553 24.149-2.49 10.652-2.051 21.315-5.1645 29.283-12.43 6.8009-6.2001 10.935-14.804 11.391-23.99 0.49533-10.013-3.4355-19.556-8.6206-28.195-9.6087-16.012-23.465-28.847-36.756-42.026-12.898-12.788-25.366-26.026-36.464-40.397-14.636-18.955-26.712-39.733-36.582-61.555-12.028-26.593-20.688-54.549-27.415-82.96-6.6354-28.022-11.498-56.669-8.5798-85.266 2.1723-21.28 8.5645-41.816 14.552-62.379 8.1889-28.13 15.285-56.58 24.089-84.525 3.1286-9.9294 6.5437-19.779 11.324-29.021 3.6099-6.9776 7.8629-13.701 9.4266-21.368 5.9185-29.006-34.505-29.359-67.426-16.319-15.393 6.0984-31.916 16.271-23.014 27.602 1.3408 1.7049 2.9745 3.1503 4.323 4.8502 6.1897 7.802 3.0242 18.656 1.9215 28.816-1.0976 10.115-0.4635 20.324-1.225 30.475-0.49533 6.6111-1.6503 13.151-2.8383 19.674-4.0823 22.412-9.2114 44.63-12.856 67.116-2.7886 17.21-4.7483 34.635-2.7339 51.927 2.0654 17.734 8.1978 34.654 13.138 51.835 4.0785 14.185 7.365 28.591 11.819 42.661 9.9461 31.423 25.447 60.687 41.539 89.487 11.43 20.454 23.078 40.809 36.251 60.185 6.9372 10.203 14.253 20.146 22.16 29.618 2.8918 3.4646 5.8408 6.9012 8.0883 10.81 3.5552 6.1849 5.3009 13.481 2.7835 20.088-1.9979 5.2472-6.3718 9.0998-11.447 11.563-15.239 7.3949-32.558 0.30027-49.538-2.9086-14.94-2.8233-30.229-2.8602-45.391-4.1606-34.219-2.9353-68.877-12.811-101.01-1.6019-9.9588 3.4748-19.574 9.0426-29.943 7.8427-5.0081-0.58019-9.6558-2.7623-13.384-6.1569-15.364-13.984-3.2037-36.654 10.469-54.248 7.253-9.3314 15.553-18.078 26.391-22.663 4.2084-1.78 8.6753-2.8946 13.238-3.116 6.6545-0.32318 13.211 1.2125 19.688 2.8361 11.81 2.9608 23.714 6.2447 35.796 5.1568 7.5891-0.68325 15.078-3.088 20.405-8.4764 4.2008-4.2471 6.5857-9.9014 7.3103-15.842 1.4605-11.977-4.0365-23.342-8.7122-34.587-7.6643-18.432-13.695-37.496-21.15-56.015-7.1651-17.799-15.658-35.074-21.537-53.33-3.68-11.426-6.4724-23.46-14.533-32.23-17.004-18.5-46.849-10.858-46.849-10.858m211.59 534.09c-0.89754 9.105 0.46138 18.409 5.3714 26.069 3.6646 5.7182 9.0889 10.074 15.543 12.054 6.1504 1.8875 12.811 1.5488 18.682-1.0833 5.6172-2.5179 10.202-6.9854 12.5-12.728 2.7645-6.9093 1.8594-14.611-1.3337-21.375-4.8104-10.188-13.991-17.608-24.541-21.579-5.6336-2.1196-11.746-3.1597-16.922-0.24228-6.3937 3.6062-8.5645 11.42-9.2994 18.884z"/>
<path d="m223.89 846.42c8.1869 10.818 18.025 20.234 27.734 29.72 6.7058 6.5519 13.42 13.302 21.938 17.137 10.017 4.5085 21.254 4.9225 32.293 4.6601 9.1565-0.21657 18.368-0.90959 26.67-4.7225 10.774-4.948 19.442-13.974 23.283-25.214 3.2651-9.5571 2.5958-19.788-0.18196-29.553-4.8506-17.045-14.978-31.958-27.137-44.873-13.531-14.374-29.668-26.255-48.182-32.99-10.887-3.9594-22.353-5.9837-33.932-6.4843-9.6973-0.4204-19.5 0.3325-28.223 4.4983-9.7851 4.6741-17.488 13.241-19.598 23.84-1.8247 9.1634 1.1032 18.317 4.666 27.025 5.3672 13.119 12.128 25.666 20.67 36.956z"/>
<path d="m224.29 881.64c6.6362 6.6414 13.232 13.387 21.038 18.575 7.8559 5.2193 16.615 8.8523 25.428 12.233 9.3852 3.6025 18.865 7.107 28.796 8.5991 11.381 1.7109 22.947 0.96295 34.295-1.0673 12.271-2.1943 24.753-5.5042 33.651-14.159 8.1896-7.9657 12.236-18.984 15.086-30.157 4.1285-16.179 6.2885-32.953 2.3225-49.119-6.437-26.245-26.56-46.117-47.44-63.603-14.158-11.857-29.125-22.687-45.448-31.295-12.533-6.6096-25.739-11.927-39.628-14.603-17.571-3.385-35.587-1.9526-53.412-0.1094-11.931 1.2339-24.097 2.6713-34.439 8.6564-6.159 3.5643-11.298 8.6627-14.49 15.026-3.9178 7.8054-4.6196 16.756-3.664 25.467 1.4443 13.153 6.5804 25.546 12.651 37.334 4.2554 8.2659 9.0831 16.204 14.615 23.671 14.787 19.961 33.073 36.975 50.638 54.554zm107.6-790.59s-6.5165 11.703-12.867 23.498c-9.0754 16.858-17.844 33.925-24.234 51.968-4.8601 13.723-8.2643 27.901-11.74 42.044-3.9297 15.992-7.9394 31.981-10.422 48.257-2.9308 19.212-3.7114 38.674-3.6187 58.115 0.073619 15.429 0.76538 30.864 3.1681 46.1 2.8584 18.11 8.0016 35.819 15.862 52.37 5.5544 11.697 12.395 22.743 20.58 32.767 7.6487 9.368 16.318 17.829 25.368 25.852 14.432 12.794 29.631 24.693 45.448 35.726 10.572 7.3739 21.373 14.425 31.57 22.31 8.4369 6.5256 16.407 13.728 22.364 22.564 6.9214 10.268 10.851 22.222 12.744 34.489 1.2871 8.3455 1.6336 16.799 1.4267 25.245-0.34905 14.186-1.9534 28.313-2.0055 42.5-0.036809 10.318 0.77553 20.627 2.5259 30.793 1.5473 8.9852 3.8853 17.834 7.6208 26.142 5.0289 11.179 12.312 21.142 19.919 30.769 5.548 7.0216 11.256 13.931 16.036 21.493 4.2534 6.7291 7.5408 14.006 10.017 21.573 4.6418 14.189 6.217 29.247 4.4108 44.06-1.8392 15.078-7.3276 29.385-11.699 43.953-4.7547 15.839-8.2161 32.038-12.9 47.898-5.3475 18.107-11.897 35.824-17.244 53.928-5.3538 18.126-9.2721 36.778-7.9965 55.58 0.75903 11.189 3.5489 22.221 3.0971 33.411-0.17897 4.4144-0.75395 9.0018 1.664 12.602 3.9741 5.9138 12.377 3.6424 19.824 2.8628 4.6659-0.4871 9.936-0.53034 11.735-4.6433 1.678-3.8396-1.0827-7.7999-2.7277-11.805-1.8202-4.4271-2.3329-9.2447-2.7252-14.023-0.96719-11.781-0.35667-23.615 1.2871-35.314 2.5449-18.117 8.1031-35.645 13.039-53.267 4.1188-14.711 8.1171-29.456 12.053-44.218 5.6965-21.366 11.255-42.769 17.125-64.088 3.6276-13.172 7.3872-26.341 9.215-39.873 1.0992-8.1433 1.4483-16.372 1.0065-24.577-0.46202-8.5935-1.7935-17.198-5.5874-24.895-4.6481-9.4342-12.533-16.688-20.281-23.85-10.411-9.6199-20.815-19.313-29.435-30.559-8.4153-10.979-14.833-23.355-18.76-36.624-5.4985-18.583-6.0748-38.175-5.9402-57.594 0.090119-13.152 0.58133-26.38-1.9395-39.265-1.7795-9.1035-5.185-17.799-10.233-25.567-8.555-13.166-21.193-22.958-34.344-31.586-10.477-6.8728-21.409-13.016-31.928-19.826-10.6-6.8626-20.646-14.537-30.241-22.752-11.798-10.102-22.824-21.094-32.528-33.224-9.6872-12.11-17.955-25.328-24.022-39.604-4.9705-11.693-8.4027-23.967-10.883-36.437-2.3926-12.032-3.9576-24.219-4.5529-36.475-0.58387-12.017-0.2602-24.055 0.44679-36.068 0.71841-12.202 1.8138-24.382 3.6746-36.461 2.022-13.131 4.9032-26.111 8.1704-38.989 4.4488-17.535 9.6846-34.862 16.053-51.793 9.5031-25.263 21.386-49.622 36.849-71.715 1.6983-2.4266 3.4385-4.8226 3.4385-4.8226"/>
<path d="m356.96 98s-9.0375 13.724-17.225 27.96c-11.697 20.341-21.738 41.65-28.483 64.117-3.36 11.189-5.8708 22.607-8.5633 33.977-2.5019 10.575-5.2351 21.102-7.1484 31.798-2.4231 13.548-3.5125 27.287-4.0821 41.042-0.71827 17.341-0.66869 34.714 0.75005 52.01 0.56572 6.8985 1.345 13.783 2.7167 20.566 1.312 6.4852 3.1642 12.846 5.3101 19.106 3.107 9.0627 6.8357 17.918 11.817 26.096 4.588 7.533 10.174 14.391 15.824 21.171 6.0462 7.2558 12.194 14.429 18.749 21.227 12.249 12.705 25.694 24.27 40.587 33.729 6.8929 4.3781 14.051 8.3087 21.12 12.399 5.3 3.0658 10.478 6.3351 15.661 9.5943 11.528 7.2481 23.208 14.571 31.954 24.964 5.2822 6.2766 9.3007 13.497 12.156 21.194 2.9634 7.9831 4.7737 16.349 5.5847 24.831 0.86828 9.0754 0.65852 18.211 1.195 27.314 0.34706 5.9206 1.0933 11.807 1.8484 17.689 1.6755 13.061 3.524 26.18 8.1642 38.481 3.9944 10.587 9.9389 20.323 17.259 28.957 5.7919 6.8311 12.333 12.972 19.187 18.74 11.248 9.4633 23.222 18.157 32.706 29.359 7.8857 9.3183 13.872 20.263 15.403 32.341 1.6082 12.691-1.823 25.306-5.4258 37.642-3.3257 11.39-6.7772 22.74-10.029 34.15-5.5771 19.573-10.114 39.422-15.093 59.158-6.3043 24.988-13.101 49.866-17.949 75.173-2.3468 12.251-4.11 24.604-5.3343 37.016-1.0132 10.272-1.4365 20.622 0.49453 30.739 1.8167 9.5218 5.7093 18.569 11.531 26.306 4.4927 5.9715 10.277 10.748 16.448 14.967 40.846 27.936 93.468 28.991 142.59 20.563 14.888-2.5547 29.678-6.002 43.37-12.365 8.2951-3.8555 16.159-8.5604 23.84-13.539 15.135-9.8092 29.853-20.286 43.244-32.371 12.46-11.246 23.84-23.607 35.512-35.677 12.153-12.566 24.782-24.767 39.417-34.293 13.134-8.5465 27.605-14.735 42.308-20.184 14.542-5.3891 29.328-10.098 43.834-15.584 15.849-5.9943 31.291-12.995 46.675-20.103 15.503-7.1642 30.942-14.465 46.37-21.79 18.112-8.5999 36.209-17.568 55.715-22.085 10.605-2.4555 21.452-3.577 32.33-4.0997 15.015-0.721 30.058-0.57477 45.067 0.29628 6.5789 0.38148 13.215 0.88758 19.616-0.60528 6.7772-1.5793 12.797-5.2835 18.924-8.6266 6.9539-3.7957 14.126-7.2227 21.696-9.5485 4.9618-1.5234 10.062-2.5292 15.224-3.0862 8.3269-0.89902 16.726-0.71337 25.081-0.080111 9.4799 0.71846 18.91 1.9926 28.402 2.5114 14.212 0.77568 28.47-0.26831 42.411-3.1281 11.681-2.3957 23.074-6.152 33.408-12.084 10.857-6.2321 20.222-14.681 28.772-23.845 11.664-12.506 21.745-26.463 34.256-38.107 10.25-9.5383 21.899-17.389 33.574-25.133 10.239-6.7904 20.497-13.615 29.433-22.032 9.1291-8.5986 16.697-18.75 22.02-30.101 4.766-10.164 7.5921-21.095 9.3897-32.186 2.8413-17.534 3.2685-35.343 3.4325-53.116 0.08771-9.3921 0.16272-18.785 0.62928-28.167 0.60386-12.134 2.0188-24.239 5.183-35.961 3.6892-13.666 9.7596-26.527 15.457-39.497 6.6806-15.211 12.874-30.634 19.786-45.74 4.8499-10.6 9.9567-21.091 13.859-32.07 5.4258-15.268 8.3498-31.275 11.035-47.266 2.1065-12.548 3.9092-25.142 5.4436-37.773 2.0493-16.859 3.6168-33.854 1.8154-50.722-2.4815-23.233-11.454-45.181-11.454-45.181"/>
<path d="m776.29 1112.4s-13.279 9.8848-8.0886 3.3958c4.7861-5.983 11.858-9.5212 18.315-13.708 19.538-12.666 34.973-30.586 51.603-46.931 11.816-11.615 24.014-22.854 37.063-33.059 12.055-9.4258 24.851-17.849 38.224-25.286 21.737-12.089 44.8-21.557 67.326-32.117 18.613-8.724 36.88-18.163 55.248-27.394 15.573-7.829 31.247-15.565 47.844-20.858 14.058-4.4828 28.755-7.4336 43.356-5.5355 10.56 1.3718 20.628 5.0295 30.679 8.6058 8.6251 3.069 17.338 5.8826 26.157 8.3337 7.795 2.1664 15.76 3.7772 23.824 3.4352 13.768-0.58482 26.379-7.112 38.474-13.844 13.701-7.6256 26.924-16.356 41.779-21.308 4.6818-1.56 9.4704-2.7512 14.292-3.8064 14.872-3.2572 29.807-6.2068 44.747-9.1347 9.6026-1.8816 19.209-3.7924 28.608-6.5093 8.4509-2.4423 16.692-5.5889 24.483-9.6725 8.2526-4.3239 15.952-9.6343 22.978-15.756 5.414-4.7167 10.416-9.8771 15.206-15.227 7.4225-8.2905 14.44-16.945 22.273-24.844 8.6696-8.7431 18.265-16.52 28.477-23.398 8.5679-5.7707 17.56-10.897 25.904-16.985 6.6306-4.8375 12.778-10.303 18.464-16.224 6.9064-7.1908 13.046-15.082 18.243-23.59 6.4793-10.608 11.469-22.062 15.155-33.938 1.678-5.4071 3.0483-10.902 4.2026-16.446 5.7178-27.452 7.2929-55.579 11.998-83.229 4.7708-28.04 12.506-55.467 20.148-82.872 6.3954-22.931 12.816-45.859 18.604-68.951 3.7056-14.787 7.1174-29.658 9.187-44.758 2.3377-17.05 2.9352-34.276 3.7716-51.469 0.71568-14.708 1.622-29.428 0.88984-44.13-0.73221-14.664-3.089-29.189-3.089-29.189"/>
<path d="m814 1120s20.315-17.045 39.319-35.503c17.892-17.379 34.621-36.082 54.807-50.687 15.681-11.346 33.061-20.028 50.125-29.195 15.187-8.1577 30.203-16.626 45.376-24.811 19.035-10.271 38.222-20.46 58.72-27.323 3.9076-1.3075 7.8686-2.4308 11.883-3.3546 15.708-3.6151 32.017-5.2911 47.828-2.291 7.472 1.4181 14.7 3.8133 21.887 6.3216 5.3046 1.8501 10.654 3.5592 16.039 5.1602 15.909 4.732 32.353 8.004 48.89 7.0459 13.953-0.80815 27.535-4.7244 40.12-10.831 8.6962-4.2186 16.894-9.3636 25.117-14.451 15.029-9.3014 30.394-18.168 47.005-24.153 16.443-5.9239 33.801-8.7232 50.747-13.049 11.116-2.8387 22.047-6.3597 32.612-10.827 14.128-5.9734 27.531-13.598 39.485-23.199 11.208-9.0015 20.927-19.674 31.48-29.444 9.9978-9.2581 20.705-17.706 31.172-26.434 8.297-6.9188 16.412-14.052 24.555-21.15 7.0029-6.1031 14.001-12.238 20.083-19.251 7.2674-8.3788 13.041-17.905 18.366-27.642 6.75-12.341 12.721-25.119 16.885-38.547 4.6042-14.845 6.9127-30.27 9.8771-45.537 3.2161-16.573 7.1987-32.985 10.825-49.474 2.7572-12.538 5.3313-25.115 8.1025-37.649 2.8449-12.874 5.8881-25.703 8.7445-38.574 3.3089-14.913 6.3584-29.881 9.5186-44.827 2.8627-13.535 5.7699-27.064 7.9106-40.73 2.7076-17.281 4.1949-34.726 5.236-52.188 1.0195-17.073 1.5559-34.167 1.922-51.267 0.47924-22.34 0.77034-44.707-1.0538-66.971-0.54025-6.5923-1.2686-13.167-1.2686-13.167m-345.32 931s26.188-8.1874 52.485-16.024c12.377-3.6878 24.889-7.0549 36.731-12.207 26.438-11.504 49.41-29.458 75.559-41.618 16.826-7.8248 34.826-12.87 51.64-20.713 27.543-12.846 52.02-31.196 75.676-50.354 4.9697-4.0237 9.9089-8.0844 9.9089-8.0844m-626 101s22.131-13.544 45.181-25.403c15.475-7.9626 31.425-15.11 48.365-19.019 24.356-5.6191 49.627-4.2906 74.655-5.2051 18.642-0.6808 37.27-2.6952 55.877-1.5267 17.639 1.1063 35.018 4.7084 51.966 9.7611 11.357 3.3849 22.608 7.1268 34.214 9.4842 20.657 4.1953 41.934 2.9328 62.645-1.0085 35.675-6.7902 68.826-22.852 103.75-32.925 19.413-5.6001 39.203-10.001 57.432-18.625 30.489-14.424 54.447-39.702 71.101-69.077 8.3418-14.712 14.692-30.823 26.686-42.653 7.6334-7.5282 17.131-12.803 17.131-12.803"/>
<path d="m928 1140s22.068-23.037 47.623-41.856c22.983-16.925 48.501-30.335 76.033-37.759 24.604-6.6354 50.199-7.7171 75.689-8.7976 29.252-1.2394 58.519-2.3669 87.78-1.5788 24.588 0.661 49.166 3.094 73.684 1.3156 22.626-1.6423 44.844-6.5604 67.188-10.57 26.708-4.7922 53.704-7.7756 80.518-11.932 13.514-2.0948 27.058-4.266 40.07-8.4569 14.409-4.6397 28.145-11.336 39.706-21.1 15.774-13.322 26.683-31.182 38.67-48.073 15.073-21.243 31.936-41.194 45.278-63.545 8.5213-14.274 15.338-29.483 22.809-44.338 12.825-25.499 26.952-50.309 26.952-50.309"/>
<path d="m886 1139s14.664-20.067 32.331-37.374c21.066-20.637 45.919-36.811 70.699-52.862 20.917-13.549 42.183-27.165 66.443-32.461 19.932-4.3499 40.522-2.6902 60.952-1.882 17.454 0.69004 34.919 0.93021 52.376 1.5262 12.623 0.43079 25.243 1.1157 37.872 1.0217 30.229-0.22493 60.311-4.3016 89.515-12.127 24.035-6.4403 47.346-15.296 71.301-22.034 20.036-5.6359 40.489-9.6808 60.514-15.354 18.633-5.2775 36.898-11.926 53.781-21.391 14.886-8.3452 28.493-18.757 40.844-30.538 13.522-12.898 25.442-27.352 36.247-42.602 14.635-20.653 27.168-42.688 39.161-64.985 10.57-19.654 20.957-39.484 28.377-60.521 6.169-17.49 10.159-35.631 14.708-53.622 2.9484-11.659 6.3928-23.321 13.616-32.876 8.9342-11.818 23.162-19.871 25.911-8.302 0.22895 0.96452 0.35233 1.9506 0.35233 1.9506"/>
<path d="m854 1124s21.033-21.989 43.149-42.865c11.351-10.712 22.956-21.185 35.617-30.302 13.531-9.7443 28.057-17.987 42.696-25.982 20.18-11.022 40.619-21.55 61.491-31.196 16.734-7.7323 33.932-14.923 52.262-16.019 17.608-1.0518 34.827 4.0417 52.168 7.52 13.108 2.6287 26.332 4.6699 39.665 5.7166 17.448 1.371 34.995 1.535 52.303-1.0454 12.151-1.8123 24.069-4.9383 35.312-9.8778 15.339-6.7404 29.089-16.572 43.988-24.255 10.692-5.5131 21.912-9.9109 33.408-13.454 12.848-3.959 26.046-6.6488 39.07-9.9961 16.153-4.151 32.111-9.0613 47.548-15.377 16.49-6.7467 32.479-14.796 46.607-25.639 14.724-11.3 27.191-25.164 39.91-38.709 13.063-13.909 26.317-27.637 38.652-42.192 12.951-15.282 24.871-31.5 33.548-49.53 6.4304-13.36 10.635-27.627 14.626-41.914 3.7934-13.572 7.2267-27.244 10.313-40.993 2.5671-11.442 4.736-22.972 7.5931-34.343 3.7819-15.054 8.5548-29.839 12.412-44.874 5.5501-21.63 9.3549-43.661 12.994-65.698 2.936-17.773 5.8694-35.545 8.7901-53.32 1.9896-12.115 4.1127-24.217 5.2537-36.44 1.9552-20.917 1.3713-41.956 1.3789-62.971 0.0089-24.199 0.94007-48.419-0.89809-72.539-1.6753-21.972-5.5616-43.704-5.5616-43.704"/>
<path d="m1600.6 264.48s5.0587 15.368 7.8099 31.249c3.0894 17.836 3.2915 36.043 1.3311 54.046-1.8218 16.718-5.5469 33.153-10.407 49.257-5.2952 17.541-11.699 34.772-20.277 50.957-4.7752 9.0102-10.168 17.671-15.66 26.266-10.056 15.736-20.114 31.471-30.282 47.135-7.2912 11.234-14.685 22.488-19.551 34.95-3.5852 9.1793-5.7681 18.869-5.9868 28.718-0.21613 9.7427 1.3883 19.403 3.2114 28.988 1.551 8.148 3.1695 16.283 4.6582 24.443 1.4913 8.1696 2.7308 16.4 2.7741 24.699 0.03686 7.0161-0.80477 14.035-2.9826 20.699-1.9884 6.0839-5.0828 11.728-8.7787 16.958-6.1444 8.6986-13.762 16.31-22.711 22.08-5.6982 3.674-11.807 6.6384-17.781 9.8495-11.101 5.9657-21.586 13.145-30.027 22.478-10.068 11.133-16.639 24.946-26.241 36.493-5.0714 6.1005-10.948 11.466-16.461 17.171-5.1909 5.3705-10.192 10.979-16.422 15.064-10.069 6.6015-22.358 8.4074-34.44 8.2395-11.829-0.16405-23.543-2.4493-34.309-7.3239-12.129-5.4926-22.578-13.998-33.921-21.004-4.9926-3.0839-10.166-5.9453-15.8-7.5604-2.8618-0.82026-5.8139-1.2883-8.7901-1.2679-4.2654 0.030522-8.4595 1.0072-12.488 2.4252-4.5056 1.5846-8.7799 3.7465-12.791 6.3434-6.672 4.3201-12.576 9.7096-19.08 14.284-9.502 6.6817-20.096 11.584-30.72 16.302-7.7438 3.44-15.53 6.7999-23.544 9.5469-5.6397 1.933-11.363 3.6053-17.111 5.1925-9.4715 2.6147-18.993 5.0907-28.16 8.616-12.635 4.8593-24.369 11.723-36.373 17.997-10.234 5.3502-20.658 10.329-31.199 15.046-9.0177 4.0339-18.127 7.8694-27.462 11.095-11.418 3.9449-23.125 6.9742-34.738 10.309-12.399 3.5608-24.692 7.4994-37.177 10.75-12.884 3.3548-25.985 5.9593-38.47 10.564-7.609 2.8067-14.918 6.3625-21.846 10.583-10.846 6.6092-20.678 14.71-30.47 22.81-9.7932 8.1022-19.558 16.239-29.143 24.586-14.948 13.022-29.608 26.377-44.934 38.948-16.197 13.286-33.199 25.599-51.581 35.613-13.344 7.2692-27.363 13.244-41.878 17.732-14.139 4.3722-28.74 7.1115-43.526 7.1949-22.695 0.12265-45.296-5.623-64.245-18.085-6.6275-4.3582-12.67-9.5558-17.294-15.995-7.1221-9.9195-10.781-21.86-12.157-34.024-1.401-12.383-0.32165-24.855 1.4048-37.213 2.3622-16.908 5.6168-33.673 8.5956-50.484 2.802-15.819 5.3257-31.691 8.8066-47.372 5.0256-22.647 11.567-44.923 18.253-67.14 4.2565-14.143 8.5765-28.31 10.801-42.902 0.83909-5.5015 1.2408-11.058 0.85434-16.605-0.80095-11.481-4.9188-22.566-12.18-31.469-7.9535-9.7554-19.169-15.997-29.953-22.588-11.044-6.7503-21.825-14.025-30.967-23.173-7.8391-7.8453-14.272-16.986-18.742-27.134-6.072-13.787-8.382-28.848-9.7296-43.882-1.073-11.97-1.5688-23.99-3.1835-35.896-1.696-12.497-4.751-24.875-11.127-35.719-6.0364-10.269-14.772-18.596-24.47-25.539-11.359-8.134-23.953-14.316-36.08-21.271-8.1481-4.6723-16.053-9.7503-23.777-15.094-8.8359-6.1132-17.348-12.685-25.277-19.932-7.5772-6.9246-14.526-14.499-21.704-21.838-4.1166-4.2094-8.2358-8.4188-11.988-12.954-9.0965-10.997-15.841-23.734-20.822-37.118-2.53-6.8037-4.5235-13.789-6.0046-20.896-2.2312-10.703-3.3932-21.595-4.1115-32.507-0.79841-12.112-0.97767-24.257-0.47421-36.385 0.56702-13.663 1.9808-27.276 4.1179-40.784 3.1707-20.046 7.8391-39.836 14.026-59.165 3.7136-11.602 7.9675-23.022 12.637-34.274 5.004-12.057 10.373-23.97 16.548-35.47 3.1898-5.9428 6.578-11.776 10.213-17.456 5.0943-7.9597 10.611-15.638 10.611-15.638"/>
<path d="m379.68 100s-6.7604 7.8619-12.491 16.47c-6.8049 10.223-12.041 21.375-17.223 32.517-7.0388 15.135-13.895 30.363-19.611 46.042-4.8316 13.25-8.7642 26.808-12 40.536-4.7782 20.261-7.7852 40.893-8.8888 61.677-1.1138 20.965-0.29371 42.02 3.0553 62.74 1.5741 9.7367 3.8424 19.348 7.3198 28.572 7.1533 18.975 18.897 35.824 32.472 50.912 9.4915 10.548 20.005 20.099 31.272 28.726 16.539 12.662 34.291 23.69 52.847 33.157 11.933 6.0875 24.496 11.392 34.208 20.562 5.4063 5.1069 9.6835 11.24 13.275 17.765 8.2264 14.943 13.878 31.367 15.02 48.395 0.28226 4.2076 0.43103 8.419 0.59886 12.634 0.66625 16.685 4.1793 33.265 12.004 47.959 4.4107 8.2854 10.275 15.684 16.78 22.452 5.4406 5.6627 11.364 10.883 18.082 14.936 11.573 6.9817 25.067 10.083 36.706 16.96 5.9937 3.5424 11.367 8.0094 16.67 12.531 3.9632 3.3796 7.92 6.8354 10.698 11.229 2.6599 4.2063 4.1221 9.0308 5.0299 13.933 0.66879 3.6098 0.99174 7.2704 1.0629 10.94 0.22505 11.67-1.8869 23.241-4.9727 34.505-4.3408 15.846-10.927 30.959-16.164 46.539-9.4851 28.214-13.917 57.767-20.005 86.93-6.3815 30.564-14.999 61.487-8.1603 91.721 1.705 7.5363 4.4387 14.797 8.3459 21.455 6.2785 10.703 15.452 19.43 26.534 24.961 32.595 16.267 69.091-2.4638 102.45-19.565 23.634-12.115 47.132-24.557 68.494-40.313 22.277-16.432 42.225-35.766 62.048-55.111 10.394-10.144 20.867-20.338 33.442-27.538 14.387-8.2371 30.789-11.894 47.184-14.549 29.25-4.7342 59.116-5.8789 87.577-14.005 23.057-6.5836 44.611-17.362 66.076-28.114 14.365-7.1954 28.752-14.348 43.131-21.517 20.93-10.435 42.022-20.751 60.667-34.837 13.99-10.57 26.422-23.102 40.837-33.074 13.872-9.5968 29.501-17.011 46.297-17.538 8.8901-0.27983 17.738 1.3254 25.915 4.8372 5.6148 2.4116 10.904 5.5546 15.565 9.5103 9.611 8.157 16.589 19.342 27.891 24.715 4.9702 2.362 10.441 3.3897 15.911 4.055 5.7267 0.69703 11.57 0.81404 16.904-1.3037 14.226-5.6487 15.991-23.629 20.445-38.886 2.4323-8.3325 5.7038-16.421 10.097-23.904 6.1068-10.407 14.397-19.269 23.001-27.749 10.727-10.572 22.274-20.81 28.11-34.62 5.6987-13.483 5.3122-28.471 6.2213-43.165 0.65989-10.667 2.206-21.254 4.5646-31.675 4.5429-20.069 12.215-39.482 24.813-55.7 8.3752-10.781 18.689-19.828 28.324-29.517 14.026-14.101 26.425-29.7 38.543-45.477 8.4718-11.032 16.68-22.274 23.631-34.315 9.2347-15.996 16.232-33.25 20.064-51.313 1.9975-9.4188 3.0553-18.998 4.117-28.57 1.5804-14.251 3.419-28.562 2.0534-42.815-1.9581-20.434-10.454-39.547-10.454-39.547"/>
<path d="m389.62 101s-4.4263 4.3372-8.1225 9.2795c-6.2464 8.3528-10.183 18.137-15.128 27.338-5.1271 9.5388-11.25 18.525-15.822 28.337-4.6107 9.8934-7.5718 20.444-10.693 30.909-3.9799 13.341-8.092 26.643-11.475 40.147-3.859 15.403-6.815 31.034-8.2256 46.849-0.98956 11.096-1.1727 22.241-1.1506 33.384 0.032533 13.603 0.3467 27.224 2.2584 40.687 1.7476 12.302 4.8219 24.409 9.8943 35.745 4.9898 11.153 11.814 21.35 19.286 31.028 8.1607 10.568 17.03 20.613 27.199 29.262 7.9915 6.7994 16.664 12.742 25.623 18.212 12.073 7.3714 24.533 14.083 37.189 20.406 4.8549 2.4266 9.7086 4.852 14.515 7.3714 9.7671 5.1202 19.272 10.834 27.326 18.345 7.2602 6.7702 13.22 14.832 17.719 23.687 2.1025 4.1376 3.8717 8.4316 5.276 12.855 2.8478 8.9655 4.5306 18.246 6.2185 27.505 3.4558 18.94 6.8252 38.142 15.614 55.219 4.9491 9.615 11.618 18.267 20.268 24.737 12.52 9.3659 27.881 13.735 43.145 17.4 10.851 2.6059 21.928 4.8838 31.476 10.586 7.1495 4.2685 13.014 10.402 16.478 17.958 4.6909 10.232 4.4619 21.847 3.1124 33.081-1.511 12.572-4.612 24.878-8.4189 36.96-6.5479 20.781-14.973 40.921-21.669 61.656-7.1152 22.034-12.223 44.684-14.333 67.732-1.6179 17.677-1.3839 35.482 1.0137 53.064 0.96539 7.0765 2.3353 14.088 3.8031 21.077 1.3699 6.5223 2.9051 13.084 6.4258 18.717 4.2571 6.8147 11.081 11.565 18.793 13.859 8.8806 2.6427 18.304 1.6945 27.349-0.45889 16.562-3.9431 31.769-11.996 47.546-18.45 18.307-7.4884 37.42-13.033 54.913-22.229 17.597-9.2515 33.297-21.69 47.559-35.571 13.136-12.785 25.099-26.712 38.274-39.461 7.1304-6.8998 14.794-13.266 23.653-17.691 17.583-8.7824 37.898-8.8269 57.648-8.232 16.454 0.49702 32.911 1.683 49.333 0.64575 21.449-1.3538 42.457-6.5592 62.233-14.983 13.909-5.9249 27.12-13.329 40.262-20.811 11.8-6.7168 23.594-13.442 35.259-20.391 25.161-14.984 50.197-30.498 71.541-50.517 7.6837-7.2075 14.938-14.881 23.233-21.363 11.628-9.0862 25.159-15.279 38.772-21.025 15.884-6.7041 32.036-12.794 48.558-17.714 10.3-3.0673 20.757-5.7406 30.403-10.446 10.986-5.3605 20.431-13.292 29.193-21.835 15.808-15.412 29.318-32.998 41.102-51.673 6.7018-10.621 12.852-21.575 18.776-32.65 9.8994-18.499 19.37-37.362 32.803-53.438 12.611-15.095 28.349-27.157 42.736-40.602 13.56-12.672 25.902-26.561 38.16-40.502 13.507-15.361 27.023-30.846 37.053-48.645 5.9348-10.53 10.565-21.738 13.935-33.346 3.1582-10.872 5.2111-22.024 6.698-33.25 1.5301-11.555 2.4637-23.222 1.2172-34.799-2.2335-20.755-11.334-40.029-11.334-40.029"/>
<path d="m399.31 102s-7.0368 11.062-13.974 22.186c-5.4591 8.7508-10.811 17.568-15.921 26.526-3.7326 6.5441-7.2453 13.211-10.37 20.066-6.958 15.259-11.731 31.397-15.887 47.65-7.122 27.85-11.926 56.254-13.568 84.947-1.3756 24.051-0.71703 48.374 5.9676 71.481 3.0487 10.538 7.286 20.704 13.043 30.041 6.9453 11.268 15.733 21.25 25.047 30.671 11.998 12.135 24.727 23.592 39.02 32.906 8.5141 5.5474 17.46 10.391 26.701 14.629 11.906 5.4597 24.16 10.155 35.688 16.364 11.603 6.2504 22.466 14.075 30.072 24.796 7.0368 9.9178 10.794 21.657 13.869 33.46 4.0721 15.625 7.1093 31.522 12.158 46.853 3.6869 11.198 8.5027 22.161 16.705 30.568 8.27 8.4788 19.209 13.614 30.483 17.375 12.181 4.0627 24.769 6.722 37.39 9.1296 8.8917 1.6958 17.853 3.3763 26.003 7.2686 6.9224 3.3063 12.917 8.2525 17.496 14.403 6.8627 9.2186 10.064 20.594 10.546 32.1 0.44751 10.655-1.5663 21.211-4.5361 31.467-5.1769 17.872-13.017 34.819-19.834 52.143-3.3067 8.4013-6.2728 16.931-8.9616 25.548-6.0452 19.366-10.272 39.296-11.225 59.544-0.6077 12.924 0.30766 25.905 3.7034 38.374 2.713 9.9597 7.1207 19.603 15.172 25.947 10.386 8.1839 24.331 8.7661 37.699 8.5144 26.481-0.4983 53.081-4.2686 77.011-15.519 11.804-5.55 22.784-12.763 31.983-22.011 12.015-12.08 20.819-26.889 31.914-39.84 8.3336-9.7271 17.989-18.319 29.247-24.385 12.512-6.7424 26.584-10.044 40.802-9.9585 14.683 0.086441 29.044 3.6788 43.519 6.2733 20.938 3.7525 42.32 5.25 63.288 1.8623 20.348-3.2873 39.555-11.25 57.78-20.931 18.699-9.9356 36.346-21.698 53.701-33.84 12.956-9.0648 25.743-18.375 37.963-28.408 18.172-14.919 35.035-31.386 53.472-45.972 14.797-11.709 30.438-22.388 47.325-30.8 7.586-3.778 15.355-7.172 22.917-10.997 12.015-6.0763 23.26-13.534 34.476-20.991 12.116-8.0542 24.131-16.311 34.883-26.101 10.85-9.8822 20.144-21.31 28.458-33.409 12.223-17.788 22.023-37.159 34.706-54.618 12.248-16.862 26.659-32.11 43.188-44.816 5.7375-4.411 11.625-8.6148 17.379-13.005 16.565-12.642 30.868-27.927 45.432-42.841 15.751-16.13 31.513-32.463 42.276-52.208 9.493-17.414 14.568-36.808 18.022-56.363 1.7074-9.6635 2.8936-19.431 2.3126-29.218-1.537-25.932-15.049-49.373-15.049-49.373"/>
<path d="m408.39 103s-12.303 17.36-23.193 35.613c-7.4758 12.532-14.256 25.475-19.871 38.941-5.6065 13.443-9.9821 27.354-13.89 41.387-4.7812 17.174-8.7894 34.564-11.333 52.206-3.0531 21.182-3.9458 42.634-2.2584 63.963 1.1483 14.537 3.5414 28.962 7.7454 42.921 3.6635 12.164 8.6609 23.919 15.604 34.552 8.2527 12.638 19.03 23.361 30.726 32.929 16.12 13.185 33.878 24.255 52.94 32.647 12.163 5.3537 24.763 9.6679 36.736 15.426 11.993 5.7679 23.423 12.974 31.803 23.267 5.8825 7.2242 9.9936 15.662 13.269 24.397 5.9778 15.943 9.4023 32.745 15.807 48.516 4.9249 12.128 11.606 23.649 21.682 31.943 10.805 8.894 24.423 13.361 38.287 15.651 11.46 1.8921 23.1 2.4945 34.444 4.9623 10.603 2.3064 20.792 6.4618 29.111 13.378 9.1454 7.6029 15.098 18.182 19.204 29.368 7.0867 19.312 8.3748 40.313 4.2624 60.471-4.2001 20.595-14.175 39.429-20.918 59.376-3.6724 10.86-6.2983 22.034-8.2922 33.325-2.6284 14.883-4.2637 30.175-0.10554 44.639 2.5305 8.7974 7.079 17.078 14.513 22.36 5.1309 3.6458 11.207 5.5735 17.371 6.9358 12.162 2.6876 24.686 3.5606 37.064 2.173 14.121-1.5834 28.021-5.895 38.905-14.981 10.937-9.1303 17.858-21.898 26.072-33.614 6.8489-9.7708 14.936-18.622 24.598-25.593 18.801-13.565 42.324-18.529 65.509-17.164 20.838 1.2263 40.857 7.852 61.214 12.62 15.891 3.7208 32.109 6.2292 48.367 5.0678 16.858-1.2047 33.16-6.3334 48.258-13.95 15.762-7.9511 29.96-18.58 44.642-28.405 11.811-7.9028 23.983-15.291 35.149-24.072 13.132-10.327 24.754-22.392 36.928-33.845 6.2093-5.8429 12.588-11.507 19.311-16.748 11.326-8.8304 23.578-16.381 35.466-24.448 23.239-15.773 45.156-33.381 67.461-50.454 10.773-8.2459 21.582-16.452 31.662-25.524 15.042-13.537 28.37-28.855 40.268-45.223 11.759-16.174 21.963-33.515 35.351-48.35 11.228-12.442 24.434-22.863 37.763-33.047 17.75-13.561 35.759-26.812 52.615-41.463 17.956-15.61 34.444-32.84 48.626-51.936 10.606-14.282 20.116-29.527 25.403-46.484 2.0829-6.6791 3.441-13.55 4.2777-20.497 1.4827-12.329 1.62-24.851-0.96134-36.985-4.7596-22.38-18.572-41.529-18.572-41.529"/>
<path d="m417.9 105s-14.539 19.063-26.798 39.601c-7.9676 13.35-15.005 27.254-20.512 41.79-4.9632 13.104-8.6138 26.651-11.861 40.287-4.4506 18.691-8.1317 37.56-10.368 56.639-2.3086 19.687-3.4063 39.601-1.0303 59.269 1.3178 10.91 3.8083 21.621 7.2973 32.044 5.4097 16.166 12.746 31.708 23.192 45.155 10.903 14.036 25.077 24.987 40.377 34.062 16.45 9.7565 34.163 17.14 52.147 23.653 13.553 4.9081 27.43 9.2974 39.065 17.733 10.615 7.6966 18.502 18.367 24.651 29.961 4.0983 7.7296 7.1205 15.96 10.079 24.192 4.8462 13.481 8.9203 27.41 17.298 38.986 6.2721 8.668 14.572 15.586 24.227 20.18 9.999 4.7568 20.987 6.9565 31.994 8.2789 14.793 1.7763 30.052 1.5182 43.673 7.3939 6.7592 2.9156 12.738 7.2986 17.795 12.65 5.7849 6.1224 10.222 13.351 14.242 20.759 6.7758 12.479 12.205 25.682 15.578 39.472 3.2283 13.201 4.0818 26.803 5.1807 40.358 1.1639 14.347 2.3442 28.743 0.22387 42.945-1.1219 7.5122-3.3834 14.798-5.2138 22.172-1.5543 6.2636-3.0464 12.606-2.7462 19.044 0.22005 4.7377 1.3801 9.3648 3.3427 13.685 1.9779 4.3524 4.6681 8.4074 8.4548 11.304 3.1214 2.3879 6.8343 3.9303 10.748 4.3003 3.9291 0.37129 7.8239-0.48954 11.476-2.0141 10.866-4.5368 18.846-13.771 28.158-21.065 12.928-10.128 28.107-16.974 43.841-21.741 25.495-7.722 52.515-9.9713 78.544-4.2685 21.523 4.7161 41.492 14.779 62.983 19.714 10.777 2.4744 21.809 3.4891 32.873 3.4535 11.563-0.036874 23.146-1.0503 34.193-4.4249 10.791-3.2958 20.727-8.7926 30.357-14.696 12.746-7.8161 24.918-16.517 37.173-25.086 11.756-8.2192 23.636-16.312 34.426-25.755 12.067-10.56 22.609-22.757 34.924-33.02 7.7577-6.4645 16.237-12.001 24.254-18.145 10.13-7.7627 19.632-16.302 29.702-24.144 5.7722-4.4949 11.775-8.6871 17.574-13.148 10.63-8.1759 20.815-16.909 30.937-25.708 7.9346-6.8981 15.916-13.741 23.717-20.79 6.6588-6.0156 13.236-12.123 19.377-18.664 10.947-11.657 20.49-24.521 30.132-37.286 5.874-7.7767 11.633-15.637 17.331-23.544 5.3779-7.4639 10.588-15.078 16.892-21.772 10.616-11.276 23.547-19.977 35.946-29.296 8.4497-6.3513 16.691-12.979 25.383-18.99 10.822-7.4842 22.295-14.024 32.626-22.164 11.59-9.1334 21.701-19.948 31.918-30.611 5.7786-6.0296 11.599-12.032 16.632-18.693 5.589-7.3978 10.197-15.471 14.764-23.546 4.2598-7.5351 8.788-14.976 11.94-23.036 1.6841-4.3054 3.026-8.7341 3.7816-13.298 1.941-11.712 1.5734-23.751-1.2452-35.303-6.5074-26.665-24.697-48.452-24.697-48.452"/>
<path d="m428.22 106s-5.6979 6.544-10.918 13.467c-7.8215 10.373-14.493 21.546-20.846 32.881-7.0229 12.533-13.558 25.343-18.785 38.719-5.9243 15.161-10.061 30.945-13.364 46.886-3.7473 18.087-6.293 36.398-7.9067 54.797-1.4788 16.864-2.1426 33.83-0.17929 50.633 1.6658 14.257 5.1957 28.252 10.918 41.413 4.8536 11.167 11.228 21.615 19.023 30.972 9.3283 11.199 20.488 20.7 32.512 28.957 12.364 8.4916 25.566 15.794 39.8 20.509 14.506 4.8035 29.78 6.887 44.21 11.909 8.0288 2.7937 15.703 6.5757 22.301 11.919 10.038 8.1269 16.998 19.285 23.013 30.755 5.7196 10.907 10.662 22.196 15.769 33.405 3.2578 7.1525 6.7025 14.281 11.869 20.18 5.7831 6.6012 13.481 11.112 21.706 14.208 14.183 5.3371 29.549 6.1413 44.735 6.4436 10.515 0.20835 21.296 0.003811 30.771 4.4313 6.3884 2.9868 11.646 7.8347 16.017 13.389 5.0978 6.4779 9.0346 13.76 12.792 21.103 5.23 10.221 10.202 20.582 14.22 31.336 5.9701 15.982 10.302 32.506 15.119 48.879 3.8796 13.191 8.1686 26.312 14.505 38.5 2.9882 5.7487 6.6504 11.114 11.507 15.377 13.65 11.983 33.271 12.304 51.635 13.506 19.833 1.2971 39.652 3.1761 59.519 2.7683 7.3866-0.15118 14.787-0.49674 22.094 0.54374 13.209 1.8815 25.241 8.2273 37.705 13.083 12.797 4.9839 26.067 8.644 39.556 11.238 12.301 2.3655 24.842 3.8088 37.203 1.9285 13.682-2.081 26.38-8.0342 38.336-15.058 11.699-6.8743 22.698-14.848 33.431-23.154 17.647-13.655 34.699-28.056 51.785-42.408 15.245-12.806 30.533-25.564 46.124-37.946 21.143-16.793 42.995-32.724 63.027-50.816 14.582-13.169 28.16-27.411 40.478-42.718 14.289-17.756 26.919-36.757 39.462-55.792 8.4039-12.753 16.812-25.622 27.907-36.085 10.873-10.252 23.892-17.817 36.686-25.586 14.832-9.0074 29.367-18.489 43.895-27.977 13.958-9.1179 27.783-18.489 39.944-29.867 13.324-12.467 24.28-27.187 34.602-42.244 7.9194-11.552 15.237-23.612 18.561-37.168 5.1715-21.095 0.11444-43.21-10.557-62.207-9.0193-16.056-22.017-29.424-22.017-29.424"/>
<path d="m438.76 107.81c-5.4567 6.8338-11.952 12.788-17.352 19.668-8.0274 10.227-13.731 21.977-19.625 33.591-4.6875 9.2367-9.6942 18.32-13.78 27.836-6.6098 15.397-10.916 31.648-14.065 48.115-2.4576 12.848-4.2349 25.812-5.6004 38.821-2.1461 20.452-3.3246 41.045-1.2803 61.493 1.7278 17.273 5.7262 34.295 13.054 50.017 4.5413 9.745 10.306 18.874 17.223 27.104 9.0471 10.765 19.894 19.876 31.988 27.06 10.101 6.0002 20.956 10.604 32.176 14.105 13.47 4.2035 27.366 6.8148 41.333 8.858 8.9237 1.305 17.924 2.3953 26.419 5.3852 10.738 3.7803 20.337 10.448 26.593 19.93 3.823 5.7931 6.2259 12.359 8.7178 18.85 3.1657 8.2468 6.5641 16.42 11.049 24.024 4.877 8.2672 11.03 15.787 18.935 21.202 8.049 5.5136 17.507 8.5086 27.231 9.4222 9.0534 0.8501 18.253-0.11309 26.511-3.8782 6.7141-3.0611 12.564-7.8771 15.935-14.417 4.9672-9.6357 3.5344-20.942 3.0602-31.887-0.49583-11.432 0.078825-22.881-0.1068-34.324-0.097895-5.9634-0.37505-11.922-0.49965-17.885-0.097895-4.6558-0.073739-9.4133 1.9579-13.572 3.1975-6.5441 10.435-9.6256 17.776-10.415 8.1037-0.87043 16.243 1.0814 23.205 5.323 5.2597 3.206 9.6789 7.6382 12.635 13.037 5.0639 9.2507 5.2241 20.228 2.6368 30.508-3.7099 14.739-12.923 27.283-19.758 40.918-4.5261 9.0309-8.044 18.64-8.3198 28.71-0.32674 11.952 3.94 23.386 8.2041 34.61 5.9157 15.57 11.993 31.085 17.207 46.903 3.5039 10.633 6.6175 21.392 10.115 32.027 4.6875 14.253 10.086 28.267 16.524 41.817 4.7053 9.9026 9.9752 19.592 17.207 27.814 5.3067 6.0333 11.582 11.171 18.776 14.739 9.473 4.699 20.033 6.445 30.487 8.1935 9.7946 1.6379 19.591 3.2987 29.474 4.2467 13.018 1.2504 26.12 1.2783 39.149 2.4105 5.5699 0.48287 11.124 1.1779 16.582 2.3889 11.126 2.469 21.63 7.046 32.23 11.262 13.752 5.4704 27.765 10.411 42.367 12.762 13.718 2.2085 27.82 2.1246 40.971-2.2771 10.606-3.5516 20.061-9.7145 29.463-15.811 10.71-6.9444 21.462-13.839 31.614-21.571 11.247-8.5645 21.718-18.082 32.214-27.555 10.311-9.3053 20.676-18.564 31.621-27.112 15.293-11.945 31.704-22.414 46.593-34.851 7.1667-5.9875 13.958-12.405 20.787-18.777 13.1-12.228 26.405-24.275 38.174-37.78 9.9713-11.441 18.77-23.842 26.685-36.796 7.4884-12.256 14.185-24.971 20.997-37.617 8.1952-15.214 16.609-30.468 28.613-42.852 8.6555-8.9279 18.905-16.098 29.731-22.239 10.142-5.7525 20.749-10.619 31.384-15.402 12.625-5.6788 25.317-11.285 37.004-18.684 11.386-7.2087 21.625-16.045 31.138-25.598 11.463-11.509 21.865-24.113 29.31-38.529 5.191-10.051 8.8424-20.823 10.941-31.939 1.6591-8.7882 2.319-17.786 0.66366-26.559-2.6457-14.016-10.98-26.026-19.972-37.186-7.6079-9.44-15.829-18.364-24.345-26.995-8.6542-8.7716-17.668-17.18-26.97-25.263-115.94-100.76-269.94-138.57-420.42-174.04-203.36-47.93-434.67-101.51-559.79 55.195-0.92556 1.1589-1.86 2.3101-2.7856 3.469z"/>
<path d="m446.4 112.54c2.1542-2.2298 4.4571-4.3058 6.7829-6.3564 155-136.72 378.51-12.734 592.97 12.267 147.36 17.18 325.38-8.1578 354.63 125.56 0.65998 3.0142 1.2767 6.0475 2.439 8.9002 1.9812 4.8601 5.6906 8.7184 9.3491 12.502 12.818 13.256 26.627 25.764 36.079 41.557 7.4455 12.441 12.247 26.482 11.207 40.902-1.0084 13.965-7.2776 26.835-15.349 38.342-8.0037 11.411-17.737 21.539-29.259 29.368-11.146 7.5717-23.65 12.84-36.603 16.585-12.561 3.6333-25.507 5.8479-37.878 10.066-8.9308 3.0447-17.526 7.1408-24.716 13.23-7.8397 6.6386-13.586 15.299-18.7 24.236-6.4536 11.28-11.931 23.08-17.383 34.88-4.246 9.1888-8.4882 18.381-12.541 27.658-4.6936 10.739-9.1584 21.599-15.03 31.734-6.1026 10.534-13.647 20.133-21.367 29.555-5.8089 7.0887-11.739 14.079-17.897 20.866-11.723 12.919-24.259 25.09-37.825 36.054-9.6022 7.7586-19.694 14.88-29.65 22.183-8.581 6.2954-17.06 12.727-25.565 19.126-8.6217 6.4899-17.277 12.933-25.92 19.393-15.628 11.682-31.242 23.384-46.87 35.067-8.4221 6.2954-16.92 12.602-26.626 16.598-12.088 4.9771-25.345 6.0322-38.359 4.6097-23.09-2.5235-44.432-12.895-67.016-18.53-23.852-5.9509-48.635-6.5802-72.924-10.51-10.58-1.7124-21.053-4.0923-31.104-7.7942-17.316-6.3767-33.149-16.627-43.948-31.53-9.6352-13.299-14.438-29.269-19.359-44.992-4.9035-15.67-9.9875-31.286-14.328-47.12-3.6979-13.492-6.8313-27.228-6.3798-41.184 0.64091-19.771 8.431-38.358 16.919-56.306 8.122-17.175 17.289-34.51 16.268-53.321-0.5697-10.501-4.2371-20.656-11.045-28.655-4.5398-5.3318-10.261-9.4621-16.117-13.323-12.044-7.9417-24.909-15.094-39.206-16.433-8.6459-0.80853-17.293 0.56826-25.836 2.2171-14.151 2.7307-28.288 6.1848-40.663 13.501-2.0868 1.2344-4.1367 2.5871-5.5863 4.5194-1.6315 2.1752-2.3436 4.8855-2.1961 7.6048 0.45143 8.29 8.7044 13.066 14.476 19.358 4.7318 5.1563 7.9656 11.467 10.26 18.09 2.3347 6.7378 3.6534 13.811 3.1435 20.915-0.72738 10.124-5.0599 19.8-12.999 26.069-3.6267 2.8655-7.8689 4.8843-12.447 5.4678-7.3399 0.93312-14.508-1.9018-20.683-6.0615-7.5332-5.0762-13.548-12.128-17.062-20.501-3.628-8.6473-4.3783-18.146-6.3976-27.325-1.2831-5.8263-3.1041-11.614-6.9063-16.177-4.6707-5.6038-11.717-8.6384-19.017-8.4616-6.3811 0.1551-12.383 2.7447-18.635 4.1355-7.5434 1.6768-15.328 1.5306-23.064 1.2954-19.003-0.57462-38.142-1.7633-56.029-8.0752-11.21-3.955-21.62-9.8575-30.953-17.222-9.6594-7.6226-18.05-16.741-24.689-27.1-7.7265-12.054-12.878-25.536-16.081-39.501-4.6987-20.491-5.0967-41.64-4.5067-62.677 0.55698-19.866 2.0957-39.702 5.5075-59.277 3.9942-22.92 10.63-45.342 20.947-66.177 7.8664-15.885 18.056-30.44 28.846-44.508 4.0604-5.2949 8.2517-10.494 12.887-15.291z"/>
<path d="m461.32 111s-13.09 10.297-23.642 23.011c-12.381 14.916-20.793 32.598-27.894 50.669-9.2797 23.615-15.881 48.171-19.535 73.275-4.891 33.599-4.643 67.944 3.4107 100.89 3.3878 13.863 8.2534 27.351 15.688 39.516 8.172 13.372 19.158 25.008 33.138 31.993 15.554 7.7703 33.319 9.0654 50.688 7.3098 19.582-1.9795 38.551-7.5884 57.189-13.99 12.899-4.4309 25.723-9.0743 38.51-13.822 23.309-8.6557 46.724-17.342 71.252-21.209 14.036-2.2123 28.369-2.6512 42.124 0.79128 16.397 4.104 30.824 13.449 45.59 21.774 9.7719 5.5084 19.76 10.75 28.177 18.14 9.6447 8.4687 17.145 19.505 18.51 32.208 1.2552 11.682-2.8766 23.055-8.6604 33.363-7.4306 13.247-17.267 24.977-24.528 38.313-10.979 20.166-15.488 43.235-13.712 66.124 1.1954 15.406 5.4391 30.345 9.8367 45.172 3.5977 12.133 7.3174 24.262 12.721 35.695 5.6146 11.877 13.106 22.854 23.269 31.135 13.194 10.75 29.733 16.099 46.486 19.395 15.493 3.0481 31.275 4.2782 46.873 6.7602 11.074 1.7619 22.015 4.2388 32.94 6.7691 13.512 3.1295 27.033 6.259 40.325 10.218 11.11 3.3089 22.251 7.3823 33.735 6.3328 8.1962-0.74802 15.853-4.0518 23.285-7.6494 11.889-5.7565 23.429-12.208 34.625-19.22 24.825-15.548 47.837-33.755 71.371-51.214 13.539-10.045 27.22-19.898 40.48-30.306 15.645-12.278 30.716-25.336 43.819-40.287 12.264-13.991 22.629-29.548 30.748-46.292 10.508-21.671 17.127-44.943 24.968-67.736 5.2992-15.408 11.306-30.558 17.355-45.688 5.4646-13.671 10.956-27.519 20.183-38.939 5.2344-6.4791 11.658-12.005 19.53-14.622 13.209-4.3889 27.308 0.21627 41.326 1.2047 10.39 0.73276 20.92-0.49996 30.203-5.156 10.793-5.4117 19.003-14.997 22.517-26.555 2.195-7.2195 2.4214-14.894 0.34082-22.144-2.7545-9.5971-9.122-17.595-16.063-24.827-8.8015-9.1697-18.732-17.156-29.499-23.91-12.638-7.9281-26.429-14.361-36.238-25.518-6.5366-7.4345-11.264-16.78-9.4972-26.416 1.3722-7.4866 6.4031-13.66 6.4031-13.66"/>
<path d="m471.86 112s-11.571 10.091-21.613 21.639c-8.4519 9.7198-15.674 20.429-21.96 31.676-10.121 18.11-17.497 37.625-21.713 57.936-5.2226 25.16-5.3102 51.039-3.538 76.697 0.98074 14.203 2.5929 28.355 4.5048 42.464 1.8942 13.976 4.3041 27.926 9.8658 40.853 5.7142 13.28 14.409 25.384 26.537 33.171 5.0333 3.2323 10.59 5.4474 16.422 6.7711 25.274 5.7373 51.344-3.025 74.078-15.902 8.9092-5.0468 17.472-10.657 26.424-15.626 26.23-14.561 56.202-20.358 86.111-23.153 14.451-1.3504 29.002-1.7331 43.347 0.38655 18.779 2.7745 36.7 9.6232 53.575 18.368 18.098 9.3778 35.002 21.161 54.229 27.815 16.727 5.7881 34.546 7.0737 52.235 6.0692 14.491-0.8227 29.529-3.1102 39.801-13.145 7.1866-7.0216 10.7-16.786 10.833-26.863 0.23765-19.053-11.3-35.616-23.289-50.676-22.13-27.801-48.101-52.203-75.493-74.859-9.3958-7.7718-18.922-15.382-28.391-23.067-11.099-9.0103-22.039-18.216-33.056-27.327-9.063-7.4933-18.155-14.955-26.936-22.776-11.093-9.8788-21.616-20.375-32.56-30.42-12.839-11.782-26.223-22.95-26.223-22.95"/>
<path d="m483.07 115.19c-10.316 7.0715-19.013 16.128-26.709 26.025-10.417 13.393-19.755 27.683-26.549 43.236-6.7161 15.381-11.023 31.69-12.775 48.397-1.241 11.845-1.358 23.774-0.38018 35.644 1.3923 16.903 4.9016 33.555 6.73 50.42 1.3185 12.163 1.9111 24.414 4.5316 36.352 2.1069 9.5925 5.6022 18.808 9.4231 27.857 3.6149 8.5574 7.8629 17.028 15.348 22.385 12.152 8.6962 28.39 5.904 42.271-0.28902 16.678-7.4395 30.25-20.236 46.037-29.492 11.356-6.659 23.736-11.269 36.289-15.255 19.504-6.1943 39.485-10.905 59.867-12.512 23.787-1.8755 47.792 0.3616 70.679 7.1187 13.69 4.0412 26.874 9.5607 40.065 15.038 8.7352 3.6274 17.559 7.0295 26.464 10.211 9.3951 3.3575 18.995 6.2516 28.932 6.8207 8.5826 0.49147 17.219-0.92055 24.883-4.781 8.0931-4.0782 14.476-10.858 17.943-19.226 6.2837-15.159 1.4915-32.136-6.5838-46.63-8.6322-15.494-21.376-28.071-34.526-40.016-17.831-16.199-36.519-31.425-54.786-47.129-19.584-16.837-38.996-33.879-57.973-51.398-15.536-14.342-30.798-29.025-47.559-41.897-17.197-13.209-36.118-24.007-56.734-30.62-35.182-11.286-74.592-11.027-104.89 9.739z"/>
<path d="m493 119.56s-8.4224 5.5985-16.148 12.09c-8.4669 7.1156-16.02 15.273-22.144 24.481-7.2292 10.87-12.244 23.008-16.503 35.364-4.4675 12.96-8.1285 26.229-9.5456 39.855-1.1754 11.295-0.84084 22.716 1.4616 33.833 2.0442 9.8633 5.5348 19.343 8.832 28.868 3.5694 10.306 6.8857 20.701 9.7606 31.223 2.3342 8.5448 4.423 17.161 7.4174 25.492 1.842 5.1289 4.0643 10.127 7.0765 14.66 2.1142 3.183 4.6749 6.0974 8.0611 7.8232 4.8173 2.455 10.459 1.9905 15.746 0.68598 10.777-2.6599 20.087-9.106 29.693-14.748 12.614-7.4108 25.857-13.717 39.722-18.378 12.672-4.2584 25.748-7.1817 38.999-8.9648 10.455-1.4063 20.985-2.1419 31.495-3.0697 13.064-1.153 26.152-2.6968 39.212-1.6392 10.88 0.8807 21.534 3.4426 32.015 6.5212 6.2001 1.8212 12.362 3.7722 18.487 5.8378 12.319 4.154 24.597 8.4277 36.797 12.92 8.7518 3.2237 17.561 6.4716 26.824 7.3574 8.4732 0.8107 17.103-0.45944 24.445-4.7204 6.4227-3.7277 11.458-9.6037 12.885-16.855 1.744-8.8566-2.3444-17.502-7.1605-25.258-7.827-12.607-18.133-23.394-28.899-33.626-14.972-14.227-30.907-27.388-46.733-40.661-23.608-19.798-47.374-39.559-67.771-62.638-13.004-14.715-24.915-30.65-41.371-41.209-22.154-14.216-49.346-16.476-75.81-17.543-14.242-0.57398-28.657-0.60325-41.988 4.2966-16.386 6.0223-29.352 18.546-39.5 32.848-7.5192 10.598-13.429 22.222-17.943 34.417-4.3492 11.754-7.5777 23.94-8.5496 36.432-0.82303 10.571-0.017809 21.212 2.7286 31.45 3.212 11.972 8.9096 23.089 15.879 33.347 5.6149 8.2648 12.031 15.99 19.652 22.439 5.1862 4.3882 10.941 8.1617 17.513 9.7946 9.2034 2.287 18.753 0.17436 28.155-1.4458 12.789-2.203 25.692-3.6895 38.479-5.904 16.405-2.8406 32.646-6.553 49.079-9.2206 21.54-3.4948 43.571-5.5476 64.808-0.78397 12.82 2.8763 24.958 8.2292 37.808 10.96 6.8921 1.4636 13.942 1.9625 20.91 3.015 7.3805 1.1149 14.753 2.9488 22.144 2.0936 3.0097-0.34871 5.966-1.2498 7.9822-3.4744 3.9014-4.3068 1.8839-10.783-0.74925-16.187-5.6225-11.542-15.599-20.043-25.126-28.735-13.288-12.124-26.068-24.785-38.573-37.722-10.573-10.937-21.235-21.791-31.559-32.965-17.36-18.794-34.332-37.936-51.422-56.977-4.6977-5.2333-9.6245-10.259-15.598-13.924-16.309-10.006-36.746-7.0914-56.08-6.3265-4.7588 0.18836-9.5113 0.41998-14.232 1.0309-13.283 1.7194-26.117 6.2998-37.195 13.798-11.805 7.9886-20.887 19.276-27.488 31.938-6.0665 11.641-9.9018 24.292-11.755 37.292-2.0226 14.189-1.7173 28.746 2.9308 42.272 3.6279 10.557 9.7911 20.088 18.29 27.308 8.9197 7.5763 19.863 12.265 31.336 14.652 13.419 2.791 27.236 2.4117 40.842 0.60452 15.061-2.0019 29.872-5.5514 44.367-10.122 8.5496-2.6943 16.982-5.7627 25.608-8.1999 7.9301-2.2425 16.059-3.9084 23.51-7.4019 3.7462-1.7563 7.2432-3.986 10.605-6.4003 2.8901-2.0757 5.7129-4.3577 7.2482-7.5445 1.9539-4.0535 1.3433-8.7331 0.35618-13.165-2.2363-10.049-6.8234-19.355-11.511-28.532-8.8485-17.321-18.448-34.343-30.982-49.183-8.0268-9.5031-17.225-17.982-27.688-24.698-12.859-8.2559-27.302-13.63-27.302-13.63"/>
<path d="m518.82 141.42c-10.206 3.8917-19.262 10.225-26.552 18.346-8.653 9.6409-14.855 21.283-17.774 33.891-2.2493 9.7145-2.8754 19.736-2.2786 29.705 0.48582 8.116 1.6742 16.243 5.6284 23.332 7.3983 13.261 21.743 20.786 36.761 24.14 16.13 3.6009 32.773 2.4226 48.914-1.403 11.221-2.6588 22.141-6.4654 32.101-12.239 10.043-5.8203 19.383-13.318 24.732-23.552 4.4923-8.5959 5.4601-18.364 4.0523-27.986-2.6688-18.236-12.64-34.594-26.489-46.837-8.8659-7.8366-19.309-13.604-30.528-17.42-7.3511-2.5013-14.993-4.1202-22.749-4.3653-8.8034-0.2768-17.589 1.2507-25.817 4.3881z"/>
<path d="m524.97 153.95c-12.92 4.7626-23.122 14.831-29.681 26.939-6.5967 12.178-9.2466 26.252-5.7291 39.61 2.2116 8.4002 6.7585 16.041 13.667 21.302 8.8746 6.756 20.284 8.7685 31.513 9.1417 10.907 0.3644 21.795-1.017 31.996-4.8515 10.657-4.0059 20.485-10.418 26.68-19.899 4.0156-6.1466 6.0999-13.271 6.5063-20.601 0.84211-15.213-5.3367-30.007-16.665-40.191-11.351-10.204-26.658-14.727-41.996-14.384-5.5673 0.12443-11.072 1.0094-16.292 2.933zm154.03-20.951s8.0052 7.1227 15.697 14.576c8.6746 8.4064 16.945 17.235 26.034 25.188 9.5424 8.3505 19.904 15.699 29.933 23.468 18.357 14.221 35.523 29.958 54.44 43.419 11.792 8.3899 24.181 15.89 36.351 23.727 7.154 4.6074 14.235 9.3356 21.024 14.465 12.843 9.7067 24.661 20.672 36.624 31.451 5.5735 5.0218 11.254 9.9278 17.297 14.369 8.7382 6.4224 18.445 11.65 29.16 12.999 14.616 1.8391 28.926-3.9935 40.628-13.067 10.158-7.879 18.194-18.07 25.088-28.943 7.8602-12.396 14.349-25.658 23.274-37.296 5.5748-7.2689 12.141-13.726 19.771-18.784 11.012-7.2994 23.971-11.63 37.091-10.424 9.8554 0.90623 19.061 4.8667 28.31 8.4764 14.132 5.5162 28.69 9.8325 43.297 13.934 16.154 4.535 32.395 8.8373 48.892 11.89 12.856 2.3781 25.88 3.6643 38.815 5.5886 14.814 2.2039 30.988 6.0106 42.198-3.3605 3.9982-3.3428 6.6424-7.9108 7.6133-13.034 2.6328-13.89-6.8282-26.826-6.8282-26.826"/>
<path d="m709 142s21.104 17.104 41.567 34.962c21.572 18.827 42.509 38.536 66.647 53.858 19.411 12.321 40.596 21.526 60.428 33.168 14.201 8.3372 27.817 18.019 43.608 22.488 13.159 3.7223 27.483 3.8624 39.078-3.2409 10.569-6.4729 16.944-17.603 23.962-27.957 7.0517-10.405 15.161-20.031 23.254-29.646 11.538-13.707 23.684-27.664 40.537-33.18 14.767-4.8315 30.632-2.2565 45.539 2.4539 14.129 4.4647 27.588 10.79 40.424 18.218 12.835 7.428 25.163 15.884 39.091 20.882 12.19 4.3756 25.189 6.0425 38.137 5.5115 8.8242-0.36293 17.612-1.7383 25.747-5.1664 6.6058-2.7838 12.769-6.7607 16.852-12.64 2.5246-3.637 4.1307-7.8139 4.1307-7.8139"/>
<path d="m727 142s13.449 12.439 27.755 23.847c14.722 11.738 30.127 22.574 45.362 33.637 10.417 7.5672 20.671 15.407 31.856 21.769 14.23 8.0952 29.615 13.781 45.223 18.743 14.481 4.6031 29.379 8.5429 44.333 6.4078 10.189-1.4553 19.633-5.9219 27.964-11.979 8.0024-5.8198 14.657-13.289 22.224-19.675 6.5889-5.5609 13.665-10.489 20.675-15.512 9.9642-7.1386 19.609-14.712 19.609-14.712m-109.2 281.2c2.534-6.2915 4.8009-12.734 5.6596-19.458 1.066-8.3518-0.025442-16.887 1.8535-25.08 1.1716-5.1056 3.5364-9.8491 6.8464-13.909 5.5171-6.7656 13.288-11.138 20.841-15.583 11.312-6.6563 22.538-13.452 33.949-19.935 14.321-8.1332 28.999-15.813 41.516-26.481 10.357-8.8272 19.076-19.355 27.741-29.865 9.6374-11.692 19.323-23.453 31.221-32.802 7.2103-5.6649 15.222-10.261 24.01-12.836 13.465-3.9439 27.733-2.8471 41.767-1.7489 15.876 1.243 31.786 2.6869 47.157 6.7923 13.534 3.6148 26.395 9.2796 38.874 15.656 11.598 5.9267 23.062 12.453 31.842 22.027 5.1253 5.5886 9.1146 12.091 11.881 19.152 4.6623 11.899 5.886 24.848 4.5122 37.567-1.613 14.932-6.8795 29.138-11.004 43.607-2.1651 7.593-3.9868 15.278-5.7346 22.979-4.0834 17.982-7.7331 36.061-11.51 54.111-3.5759 17.099-7.27 34.207-13.117 50.66-5.8733 16.533-13.912 32.209-23.849 46.67-12.665 18.431-28.206 34.668-45.029 49.423-10.061 8.8246-20.584 17.105-31.542 24.787-11.062 7.7544-22.468 15.009-34.041 21.982-18.349 11.055-37.077 21.46-55.914 31.663-17.175 9.3038-34.639 18.988-54.017 20.634-11.019 0.93546-22.02-0.74481-32.917-2.7555-22.033-4.0672-43.935-8.8755-66.123-11.969-9.3398-1.3028-18.708-2.4035-27.995-4.0329-14.604-2.5611-29.065-6.308-42.292-12.966-5.1635-2.5992-10.018-5.7462-14.361-9.5542-10.678-9.3584-17.713-22.024-23.525-35.01-5.0909-11.372-8.9925-23.232-11.546-35.423-2.9691-14.173-4.058-28.755-1.5889-43.002 3.7133-21.432 15.233-40.648 30.834-55.898 11.324-11.069 24.633-20.139 39.884-24.349 8.3208-2.2967 16.921-3.2894 25.439-4.7383 10.589-1.7997 21.351-4.5032 29.064-11.852 5.2678-5.0192 8.4836-11.691 11.212-18.464z"/>
<path d="m791.95 636.32c-3.5745-12.048-5.5467-24.581-4.7825-37.114 0.50483-8.2711 2.2647-16.444 5.974-23.845 3.6177-7.22 8.8745-13.512 15.32-18.38 5.2517-3.9652 11.219-6.8909 17.659-8.2253 10.182-2.111 20.699-0.37746 30.633 2.8303 8.0403 2.5965 15.75 6.094 23.754 8.8074 5.8354 1.9775 11.914 3.3794 17.997 2.5927 7.9857-1.032 14.847-5.8513 20.101-11.99 7.931-9.2662 11.61-21.211 14.898-33.012 4.1543-14.91 7.6398-30.005 12.164-44.807 3.104-10.151 6.7624-20.122 11.259-29.735 5.8926-12.597 13.239-24.479 22.172-35.13 10.2-12.161 22.376-22.451 34.495-32.721 15.196-12.879 30.438-25.702 45.498-38.739 14.651-12.682 29.154-25.77 46.336-34.658 9.4671-4.8968 19.592-8.4236 30.119-10.072 10.276-1.609 20.751-1.473 30.991 0.34823 11.608 2.0652 22.707 6.2554 33.149 11.744 9.8193 5.1624 19.129 11.459 25.91 20.204 6.0274 7.7754 9.7443 17.04 11.668 26.704 2.1261 10.668 2.0943 21.618 1.0211 32.454-1.648 16.634-5.6459 32.929-7.9907 49.485-3.0874 21.806-3.24 43.952-7.1299 65.621-2.2838 12.727-5.8595 25.175-10.029 37.418-4.0946 12.023-8.8669 23.814-14.93 34.969-9.6413 17.737-22.505 33.476-37.117 47.416-21.26 20.286-46.08 36.339-71.89 50.436-11.868 6.4804-23.999 12.51-36.8 16.846-15.257 5.1675-31.215 7.8885-46.693 12.365-6.915 2.0004-13.741 4.3008-20.728 6.0254-10.722 2.6498-21.741 3.9996-32.783 3.8305-6.8743-0.10422-13.718-0.82736-20.567-1.4361-13.277-1.1794-26.584-1.961-39.809-3.5967-15.1-1.8682-30.048-4.865-44.676-9.0349-3.9153-1.1159-7.7631-2.4351-11.476-4.0974-12.424-5.5602-22.937-14.715-30.798-25.822-5.9244-8.3689-9.9999-17.844-12.918-27.682z"/>
<path d="m825.02 628.29c0.14993-5.5861 1.3049-11.114 4.3771-15.75 4.508-6.7998 12.349-10.681 20.466-10.256 10.333 0.54195 18.499 8.1 27.635 13.237 10.285 5.7846 22.048 9.0236 33.732 7.511 10.176-1.3167 19.48-6.1841 26.268-13.91 7.2092-8.2068 10.837-18.739 14.474-29.088 6.4392-18.321 12.426-36.786 16.726-55.713 2.7635-12.168 4.3961-24.577 7.138-36.751 3.6376-16.163 8.345-32.138 15.975-46.838 7.7593-14.953 17.976-28.427 29.589-40.645 15.084-15.872 32.105-29.697 49.675-42.766 17.234-12.818 34.887-25.339 54.684-33.588 9.7414-4.0583 19.985-7.1153 30.504-6.6942 11.176 0.44908 21.874 4.5506 30.811 11.317 11.26 8.5249 19.323 20.71 21.92 34.606 3.5029 18.744-3.0722 37.498-5.2449 56.576-1.963 17.234-0.22997 34.64-0.36592 51.998-0.12324 15.743-1.3836 31.509-4.8993 46.851-3.8587 16.84-10.444 32.878-18.783 48.017-9.4187 17.102-20.586 33.31-34.691 46.778-9.251 8.8328-19.835 16.015-30.599 22.93-20.902 13.423-42.546 26.508-66.974 30.096-17.32 2.5444-34.885-0.43636-52.422-0.43381-17.905 0.002545-35.583 3.1779-53.318 5.7782-10.49 1.5393-21.01 3.01-31.606 3.3649-15.23 0.50887-30.361-1.3574-45.18-4.9373-12.976-3.1347-26.289-7.4855-33.755-18.347-4.6591-6.7769-6.3553-15.086-6.1343-23.343z"/>
<path d="m996.22 554.83c5.8316-16.632 14.29-32.308 18.12-49.488 2.6671-11.956 3.0858-24.286 5.2238-36.352 3.1911-18.012 9.9959-35.224 20.174-50.388 7.5775-11.289 17.029-21.159 27.752-29.492 14.413-11.197 30.793-19.511 47.764-26.216 10.81-4.2713 22.098-8.0563 33.561-6.5668 7.5166 0.97649 14.875 4.1249 18.567 10.682 3.6238 6.4331 2.7826 14.178 2.2014 21.639-0.78033 10.008-0.98715 20.062-0.14718 30.059 1.3082 15.575 5.6298 30.751 6.9989 46.321 0.59127 6.7323 0.63568 13.494 0.50372 20.253-0.28422 14.496-1.2841 28.993-4.3064 43.163-3.7101 17.397-10.406 34.112-20.981 48.366-5.8633 7.901-12.847 14.862-20.15 21.453-10.888 9.8247-22.449 18.908-35.074 26.337-16.981 9.9915-35.979 17.16-55.446 15.015-15.442-1.7009-29.813-9.0838-38.993-21.632-8.7575-11.972-12.102-27.063-10.667-41.902 0.70166-7.2645 2.4818-14.36 4.899-21.252z"/>
<path d="m1038.5 563.27c5.3404-10.844 11.982-20.975 18.938-30.864 5.6376-8.0128 11.578-15.926 19.513-21.618 7.7248-5.5402 16.938-8.9102 26.435-8.7851 7.0767 0.093187 13.956 2.2518 19.208 6.9699 7.0869 6.3686 10.205 15.971 10.427 25.556 0.2105 9.0851-2.3104 17.928-6.0676 26.23-4.0659 8.9868-9.4356 17.38-16.793 23.92-9.576 8.5106-21.67 13.512-34.078 16.844-7.9914 2.1471-16.261 3.5181-24.237 1.468-8.2287-2.1165-15.533-7.5098-17.968-15.572-2.4456-8.0996 0.83436-16.453 4.6234-24.148zm45.408-86.4c2.2225 2.3606 4.4793 4.6932 6.9318 6.8121 2.7524 2.3746 5.7602 4.491 9.2242 5.5568 5.1198 1.5758 10.78 0.74913 14.662-2.9037 4.5733-4.3027 5.1388-11.031 6.1897-17.333 1.5846-9.5072 4.37-18.854 4.0994-28.464-0.23254-8.2608-2.4894-16.454-7.205-23.228-2.103-3.0207-4.7131-5.6344-7.8912-7.4786-15.648-9.076-33.251 5.0111-38.948 23.172-3.2175 10.258-2.4995 21.372 2.6901 30.765 2.6914 4.8712 6.4299 9.0455 10.247 13.101z"/>
</g>
</g>
</g>
</svg>
